<?xml version="1.0" standalone="no"?>
<!DOCTYPE svg PUBLIC "-//W3C//DTD SVG 20010904//EN"
 "http://www.w3.org/TR/2001/REC-SVG-20010904/DTD/svg10.dtd">
<svg version="1.0" xmlns="http://www.w3.org/2000/svg"
 width="2000.000000pt" height="2000.000000pt" viewBox="0 0 2000.000000 2000.000000"
 preserveAspectRatio="xMidYMid meet">

<g transform="translate(0.000000,2000.000000) scale(0.100000,-0.100000)"
fill="#000000" stroke="none">
<path d="M9840 18773 c-278 -26 -418 -52 -585 -107 -455 -153 -704 -443 -740
-863 -5 -63 -11 -83 -22 -83 -29 0 -165 -63 -236 -109 -126 -83 -233 -199
-316 -343 -133 -232 -197 -495 -208 -863 -9 -296 26 -598 103 -900 20 -77 38
-150 41 -162 4 -19 1 -23 -20 -23 -45 0 -161 -42 -214 -77 -65 -43 -119 -115
-151 -202 -32 -87 -41 -253 -19 -357 54 -254 251 -508 480 -620 56 -28 57 -29
58 -74 1 -25 4 -99 8 -165 l6 -120 35 -11 35 -12 28 -153 c35 -192 65 -307 87
-329 9 -9 38 -23 64 -31 41 -12 54 -23 103 -89 70 -94 281 -304 394 -392 202
-157 448 -299 689 -399 63 -26 115 -51 115 -56 -1 -4 -6 -33 -13 -64 -12 -53
-15 -57 -45 -62 -39 -6 -47 -2 -47 25 0 20 -4 21 -72 15 -203 -18 -506 -149
-803 -348 -190 -127 -223 -159 -265 -260 -18 -46 -45 -109 -59 -139 l-25 -55
-6 117 c-3 64 -9 121 -14 125 -15 15 -445 21 -1987 29 -1527 7 -1547 7 -1557
-12 -23 -43 -50 -482 -55 -888 l-2 -169 -55 -12 c-69 -14 -93 -27 -121 -67
-41 -56 -28 -187 24 -245 18 -20 19 -26 7 -67 -7 -27 -9 -64 -5 -94 4 -32 3
-52 -4 -57 -15 -9 -14 -79 2 -118 8 -18 12 -48 9 -68 -7 -66 46 -140 122 -169
l26 -10 0 -162 c0 -159 16 -467 26 -499 7 -23 175 -27 1634 -39 1151 -10 1906
-4 1953 15 12 5 17 19 17 50 0 38 4 45 40 69 82 54 164 189 230 378 15 44 31
82 35 86 3 4 4 -20 1 -53 -3 -33 -8 -123 -11 -200 -6 -147 -21 -503 -55 -1245
-11 -245 -27 -593 -35 -775 -36 -798 -57 -1260 -90 -1985 -20 -426 -38 -852
-42 -946 l-6 -171 50 -39 c28 -21 57 -43 66 -49 14 -9 12 -73 -23 -659 -21
-356 -42 -652 -47 -656 -4 -4 -30 -13 -58 -20 -194 -52 -415 -197 -563 -368
-274 -318 -238 -480 121 -549 78 -15 147 -18 467 -17 642 1 876 33 944 127 19
26 21 43 21 175 0 166 -15 261 -52 344 l-26 58 18 85 c10 47 23 89 29 94 6 5
35 14 64 21 28 6 52 17 52 23 0 7 11 134 25 282 14 149 41 448 61 665 20 217
38 397 41 400 6 7 1240 6 1247 -1 5 -5 89 -631 152 -1139 19 -145 31 -208 41
-217 8 -6 32 -14 52 -18 l38 -6 21 -99 c20 -97 20 -99 1 -137 -45 -91 -71
-294 -58 -450 6 -71 8 -79 42 -109 70 -65 227 -88 707 -104 426 -15 647 -2
800 46 84 26 149 74 170 124 20 48 8 130 -30 205 -39 77 -161 227 -246 303
-125 113 -296 209 -449 253 -42 12 -71 25 -65 29 8 5 -4 184 -45 630 l-55 624
24 20 c25 21 25 21 16 126 -5 58 -16 202 -25 320 -8 118 -22 310 -30 425 -8
116 -24 334 -35 485 -11 151 -29 394 -40 540 -11 146 -31 423 -45 615 -14 193
-48 654 -75 1025 -27 371 -56 768 -65 882 -8 114 -20 271 -25 349 -6 78 -9
143 -7 145 1 2 34 -9 73 -25 167 -68 393 -117 504 -108 178 13 308 126 341
296 29 150 -41 507 -191 966 -45 139 -276 903 -404 1340 -31 105 -60 200 -65
211 -22 52 -301 234 -541 353 -209 104 -378 159 -467 152 -7 -1 -13 -8 -13
-16 0 -22 -67 -20 -78 3 -11 21 -36 141 -31 146 2 1 47 17 99 36 236 82 513
229 710 376 123 91 297 262 364 357 52 74 140 239 176 332 15 39 45 83 83 125
l59 65 96 1 c59 1 123 9 162 19 288 80 550 341 626 625 22 85 23 236 1 310 -9
30 -31 80 -50 110 l-33 55 72 145 c325 656 482 1244 452 1690 -22 319 -165
562 -405 688 -68 36 -73 40 -114 117 -152 289 -420 592 -723 819 -492 368
-1114 584 -1836 635 -133 10 -476 12 -560 4z m-820 -1987 c200 -103 455 -169
820 -213 180 -22 674 -24 850 -4 239 27 488 83 637 143 l62 25 93 -42 c317
-143 558 -360 661 -592 62 -140 60 -119 62 -613 1 -470 7 -560 47 -755 11 -55
21 -106 22 -114 1 -11 -212 -170 -505 -376 l-35 -25 -80 15 c-75 14 -444 74
-829 135 -99 16 -268 43 -375 60 -277 44 -505 77 -647 94 -109 14 -137 14
-250 1 -69 -9 -128 -14 -129 -12 -11 11 137 94 210 120 41 14 47 33 10 30 -39
-3 -173 -73 -231 -120 l-53 -43 -177 -25 c-169 -24 -746 -113 -1010 -155 -68
-11 -127 -20 -132 -20 -21 0 -52 412 -54 715 -2 213 0 241 26 380 69 376 154
639 283 884 77 145 144 241 244 345 97 101 159 150 262 206 l73 39 30 -20 c16
-11 68 -39 115 -63z m-1098 -1581 c24 -72 27 -105 37 -332 6 -138 18 -323 26
-410 20 -220 29 -393 21 -393 -16 0 -106 51 -161 92 -134 99 -271 287 -322
443 -31 95 -42 267 -24 356 27 127 102 234 202 285 52 26 179 56 190 45 3 -3
17 -42 31 -86z m4868 -452 c101 -49 167 -117 205 -208 24 -61 28 -84 29 -175
1 -203 -75 -373 -239 -536 -150 -149 -314 -232 -493 -249 -55 -6 -176 6 -188
18 -2 1 13 52 32 112 19 61 57 196 84 300 48 183 51 191 87 223 21 18 72 49
113 70 70 34 81 37 168 37 64 0 92 4 92 12 0 16 -80 27 -141 19 -66 -9 -147
-40 -195 -74 -67 -48 -68 -48 -60 -16 4 16 20 90 36 164 32 156 46 193 89 243
98 111 233 132 381 60z m-480 -188 c-10 -12 -386 -293 -469 -351 -9 -6 -27 -8
-41 -4 -21 5 11 31 245 197 237 168 309 211 265 158z m-2423 -80 c297 -40
1046 -158 1733 -272 163 -28 165 -28 163 -53 0 -14 -7 -86 -13 -160 -22 -238
-5 -587 42 -866 l12 -72 -52 -63 c-229 -286 -638 -547 -1094 -698 -215 -72
-478 -121 -642 -121 -398 0 -1031 305 -1430 690 -101 97 -241 258 -233 266 2
2 26 -2 53 -10 39 -12 229 -54 268 -60 5 0 10 4 13 11 3 7 -24 17 -74 28 -118
25 -340 84 -378 99 -28 12 -36 23 -50 73 -22 75 -75 340 -75 376 0 26 3 28 28
23 35 -7 349 -24 516 -28 89 -2 130 0 133 8 3 8 -46 14 -164 18 -333 13 -574
34 -590 50 -5 4 -24 538 -20 543 8 7 1144 181 1422 218 228 30 211 30 432 0z
m2413 17 c0 -15 -70 -327 -101 -447 -39 -155 -107 -391 -125 -433 -7 -18 -69
-92 -136 -163 l-123 -130 -8 38 c-15 74 -19 571 -5 685 l13 108 235 174 c129
96 238 175 243 175 4 1 7 -3 7 -7z m-188 -946 c-4 -7 -70 -81 -147 -165 -125
-136 -140 -149 -143 -126 -3 22 20 51 133 170 88 93 141 142 150 138 9 -3 12
-10 7 -17z m-165 -263 c-50 -104 -86 -171 -96 -177 -5 -3 -12 14 -16 39 -6 45
-6 45 66 125 39 44 73 80 75 80 1 0 -12 -30 -29 -67z m-1308 -1080 c5 -21 15
-66 21 -101 11 -63 11 -63 -28 -135 -43 -80 -243 -387 -251 -387 -5 0 -191
299 -199 320 -1 4 47 47 109 95 61 48 141 118 178 156 61 61 101 85 148 88 7
1 17 -16 22 -36z m-971 1 c45 -13 71 -29 122 -78 49 -47 245 -209 268 -222 2
-1 -192 -312 -202 -321 -6 -6 -146 205 -224 337 -46 76 -57 103 -56 137 1 44
24 163 31 163 3 0 30 -7 61 -16z m765 -46 c-36 -38 -158 -141 -247 -206 l-68
-52 -32 22 c-57 40 -261 205 -281 228 l-20 23 25 -6 c14 -4 68 -12 121 -19
108 -13 276 -1 429 30 47 10 89 16 93 14 5 -2 -4 -18 -20 -34z m-988 -270 c-3
-123 -10 -720 -15 -1328 -11 -1138 -25 -2611 -35 -3410 -3 -250 -10 -941 -15
-1535 -6 -594 -13 -1233 -16 -1420 l-6 -340 -102 7 c-280 21 -524 84 -727 190
-52 27 -114 66 -137 86 l-41 37 29 625 c16 344 34 731 40 860 5 129 21 485 35
790 39 846 52 1155 80 1770 14 311 34 758 45 994 l20 429 -45 636 c-25 350
-49 664 -53 699 -7 65 -29 84 -25 22 2 -19 23 -331 49 -693 l46 -657 -52 -153
c-69 -201 -119 -297 -195 -372 l-60 -60 -6 785 c-3 432 -7 927 -9 1100 l-2
315 67 160 c37 88 77 171 89 184 28 32 182 145 285 210 264 166 567 289 714
291 l48 0 -6 -222z m1435 196 c182 -42 475 -184 720 -347 141 -94 165 -119
185 -189 34 -126 417 -1397 460 -1528 131 -402 194 -704 183 -874 -8 -129 -82
-238 -196 -289 -169 -75 -540 15 -927 224 -224 121 -602 389 -751 531 l-31 29
53 145 c85 228 176 445 190 451 20 7 804 -303 1043 -413 80 -37 91 -40 91 -23
0 19 -362 176 -786 339 -115 44 -225 88 -245 96 l-36 16 -7 346 c-4 191 -11
536 -16 767 -9 402 -14 711 -11 728 1 10 6 9 81 -9z m-1333 -57 c15 -55 270
-472 301 -491 6 -3 36 34 67 84 31 49 60 90 65 90 18 0 38 -90 34 -152 -4 -66
-32 -710 -35 -813 -1 -33 -4 -63 -6 -67 -2 -4 -61 19 -131 51 -238 108 -284
117 -334 63 -47 -51 -45 -113 6 -163 17 -17 83 -56 146 -87 63 -30 116 -57
118 -58 2 -1 -4 -17 -14 -36 -20 -38 -22 -114 -4 -147 10 -19 9 -26 -8 -44
-42 -47 -54 -105 -32 -162 7 -19 6 -32 -4 -48 -54 -86 -2 -179 143 -260 l74
-40 -6 -111 c-3 -61 -20 -439 -38 -841 l-32 -730 66 -124 c37 -69 65 -126 64
-128 -7 -6 -182 27 -252 48 -38 11 -103 38 -143 60 -84 44 -82 44 -82 25 0 -8
16 -24 35 -36 19 -12 35 -23 35 -24 0 -2 -144 6 -148 8 -1 2 5 619 13 1372 8
753 17 1686 20 2074 4 388 8 711 10 718 3 6 17 12 33 12 24 0 29 -5 39 -43z
m1219 29 c1 0 9 -379 18 -841 9 -462 18 -866 19 -898 2 -48 -1 -56 -13 -51 -8
4 -24 9 -35 11 -13 3 -31 28 -52 73 -31 64 -157 241 -284 397 -37 45 -74 78
-99 90 -30 14 -40 24 -40 43 0 14 -9 186 -20 383 -16 275 -18 367 -10 393 6
19 15 34 18 34 4 0 29 -36 55 -80 27 -44 52 -80 56 -80 10 0 232 335 281 422
17 31 33 69 35 85 2 15 4 29 4 31 1 3 64 -8 67 -12z m-3207 -486 c369 -5 637
-12 643 -18 14 -14 27 -897 28 -1799 l0 -782 -37 -8 c-84 -18 -3490 0 -3508
18 -9 10 -23 225 -29 452 l-5 198 24 9 c33 13 57 53 54 92 -1 18 5 47 14 65
21 40 22 75 1 118 -12 25 -13 38 -5 54 14 25 14 64 0 94 -9 19 -7 31 6 56 31
61 24 90 -35 143 l-54 48 1 353 c1 423 25 880 47 916 6 9 1993 3 2855 -9z
m2746 -760 c30 -15 66 -50 127 -128 182 -231 230 -301 268 -393 l23 -56 -80
-199 c-45 -110 -95 -237 -112 -284 l-32 -86 -102 8 c-147 11 -219 25 -334 63
-256 85 -369 182 -328 281 l14 34 42 -20 c42 -18 59 -18 59 0 0 4 -20 16 -44
26 -68 28 -87 95 -46 162 22 35 37 39 78 18 52 -26 74 -30 70 -11 -2 9 -27 26
-58 38 -48 19 -57 27 -68 61 -14 45 -8 91 17 125 l18 23 73 -26 c45 -16 77
-23 82 -18 13 13 11 14 -114 61 -143 53 -302 136 -333 173 -14 16 -25 41 -25
55 0 27 49 83 74 83 44 0 313 -118 626 -275 194 -97 202 -98 122 -2 -79 93
-122 174 -122 229 0 49 18 78 48 78 8 0 34 -9 57 -20z m-5675 -397 c0 -68 -3
-84 -12 -75 -16 16 -28 15 -28 -2 0 -8 29 -38 65 -66 82 -65 90 -79 71 -125
-8 -19 -21 -35 -28 -35 -25 0 -135 58 -172 90 -47 42 -64 75 -71 142 -11 93
46 158 138 158 l37 0 0 -87z m-42 -287 c37 -19 79 -39 94 -45 30 -11 44 -46
34 -86 -13 -53 -80 -55 -160 -5 -35 23 -46 37 -52 64 -6 35 2 106 12 106 2 0
35 -15 72 -34z m-28 -170 c36 -19 71 -30 100 -31 41 -1 47 -4 62 -34 14 -29
15 -39 4 -65 -11 -27 -18 -31 -55 -34 -74 -6 -156 47 -179 114 -10 30 -5 88 7
82 3 -2 31 -16 61 -32z m10 -171 c28 -14 66 -25 90 -25 39 0 40 -1 40 -34 0
-35 -27 -66 -58 -66 -52 0 -132 78 -132 127 0 28 0 28 60 -2z m5988 -213 c42
-37 118 -100 169 -140 51 -41 93 -82 96 -95 3 -12 5 -51 6 -87 0 -36 6 -339
12 -673 11 -525 10 -610 -2 -618 -32 -21 -201 -81 -290 -103 -99 -25 -249 -50
-257 -42 -2 3 30 62 72 131 l76 126 -25 442 c-14 243 -32 561 -40 707 -8 146
-17 300 -20 343 l-6 77 66 0 66 0 77 -68z m380 -296 c126 -89 269 -175 407
-246 72 -37 136 -69 143 -71 9 -3 19 -92 37 -334 33 -453 84 -1142 195 -2665
58 -799 87 -1194 115 -1569 14 -184 22 -338 18 -342 -5 -5 -54 -26 -111 -49
-189 -75 -426 -125 -655 -138 l-115 -7 -6 180 c-3 99 -13 509 -21 910 -21
1023 -33 1592 -50 2400 -8 385 -19 923 -25 1195 -5 272 -12 561 -15 643 -3 81
-2 147 1 147 3 0 40 -24 82 -54z m-86 -1361 c1 -6 -15 -13 -36 -16 -43 -7 -45
-4 -8 15 29 16 43 16 44 1z m-724 -1191 c258 -6 302 -9 302 -22 0 -8 32 -258
70 -556 98 -751 106 -811 150 -1156 21 -168 50 -393 65 -500 38 -295 49 -389
44 -393 -2 -2 -148 1 -324 6 -192 6 -441 6 -618 1 l-297 -9 0 25 c0 14 25 293
55 620 30 327 82 897 115 1265 33 369 63 685 66 704 5 31 7 33 37 27 18 -3
168 -9 335 -12z m1083 -4064 c52 -7 159 -10 236 -9 l141 4 -37 -40 c-20 -22
-45 -59 -55 -82 -12 -28 -29 -46 -50 -55 -39 -16 -211 -14 -281 4 l-50 13 -17
75 c-22 101 -22 112 0 106 9 -3 60 -10 113 -16z m-1993 -72 c-10 -45 -21 -84
-23 -87 -11 -11 -147 -30 -215 -31 -95 0 -138 19 -163 75 -11 22 -34 56 -53
75 l-33 35 162 -3 c89 -2 189 1 222 6 33 5 74 10 91 11 l31 1 -19 -82z"/>
<path d="M8804 15930 c-170 -25 -342 -140 -406 -272 -42 -85 -38 -92 28 -53
179 108 439 171 676 163 97 -3 105 -2 97 14 -15 28 -93 86 -151 113 -49 22
-153 47 -183 44 -5 -1 -33 -5 -61 -9z"/>
<path d="M11013 15716 c-54 -20 -156 -85 -148 -94 1 -1 42 -7 91 -13 230 -26
465 -117 631 -244 40 -30 75 -55 78 -55 11 0 -7 68 -34 125 -53 113 -149 203
-281 264 -66 31 -85 35 -175 38 -86 3 -108 0 -162 -21z"/>
<path d="M9000 15294 c-107 -39 -189 -116 -241 -228 -35 -75 -53 -190 -27
-168 9 7 18 34 22 61 14 108 106 235 208 287 42 22 71 28 140 32 76 4 92 2
142 -21 141 -65 221 -194 229 -371 1 -22 8 -41 15 -44 17 -5 16 97 -2 163 -32
120 -115 224 -219 271 -77 35 -196 43 -267 18z"/>
<path d="M10669 15161 c-104 -41 -181 -117 -234 -232 -31 -70 -44 -159 -22
-159 10 0 17 16 22 55 14 112 104 239 207 291 212 107 444 -16 503 -268 8 -35
15 -80 15 -100 0 -21 5 -38 10 -38 17 0 11 124 -8 188 -39 122 -127 219 -240
262 -68 26 -188 27 -253 1z"/>
<path d="M9115 15120 c-123 -38 -195 -221 -138 -351 21 -46 78 -104 120 -120
126 -48 266 64 275 220 l3 53 -47 2 c-34 1 -52 8 -63 21 -38 48 -39 91 -3 131
18 20 18 21 -8 33 -37 17 -103 22 -139 11z"/>
<path d="M10724 14978 c-149 -100 -143 -351 9 -430 138 -71 297 44 297 214 l0
54 -38 -4 c-77 -7 -123 66 -82 134 11 20 20 38 18 39 -19 16 -57 25 -101 25
-45 0 -63 -6 -103 -32z"/>
<path d="M6305 11430 c-123 -16 -248 -56 -368 -116 -215 -108 -405 -304 -511
-529 -121 -254 -138 -565 -46 -845 43 -130 141 -294 245 -409 87 -96 265 -217
398 -271 162 -65 214 -74 422 -74 169 -1 200 2 280 23 371 97 665 364 791 717
52 145 67 252 61 424 -4 113 -11 167 -32 245 -146 551 -678 908 -1240 835z
m479 -90 c61 -23 116 -77 116 -113 -1 -44 -45 -77 -104 -77 -26 0 -38 -6 -46
-21 -7 -11 -10 -22 -8 -23 5 -4 140 -66 143 -66 1 0 5 9 8 19 3 11 17 22 36
26 64 14 180 -86 199 -173 10 -41 6 -48 -21 -43 -12 2 -9 -5 47 -91 33 -53 53
-75 63 -71 11 5 13 14 7 42 -22 98 12 182 68 168 51 -14 85 -45 116 -108 37
-77 44 -115 31 -163 -18 -65 -82 -73 -142 -16 -58 54 -75 37 -46 -46 26 -74
48 -192 49 -263 l0 -54 20 25 c28 36 75 54 105 40 30 -14 49 -77 39 -130 -22
-122 -136 -227 -176 -162 -18 29 -23 26 -43 -27 -10 -27 -21 -52 -25 -57 -5
-4 -48 25 -97 66 -86 73 -158 132 -588 488 -115 95 -259 215 -320 265 -60 50
-143 117 -183 149 -40 32 -71 63 -69 69 2 7 28 26 58 44 l54 33 -42 0 c-118 0
-68 138 64 176 56 16 83 10 102 -23 10 -19 -1 -58 -26 -86 -9 -9 -14 -19 -11
-22 3 -3 45 4 94 16 76 18 108 20 224 15 74 -3 152 -8 173 -12 34 -6 38 -4 35
11 -1 10 -19 27 -38 37 -49 27 -90 77 -90 110 0 64 116 88 224 48z m-1090
-591 l13 -30 15 23 16 23 44 -41 c40 -39 642 -534 1059 -872 104 -84 189 -157
189 -162 0 -5 -4 -11 -10 -15 -5 -3 -1 -14 10 -25 28 -28 25 -70 -9 -117 -38
-53 -84 -87 -146 -109 -78 -27 -140 -1 -133 55 3 30 0 30 -87 6 -33 -9 -105
-19 -161 -22 -99 -6 -101 -6 -111 -34 -22 -57 -117 -66 -209 -19 -66 34 -97
69 -97 111 0 18 -7 31 -17 34 -34 11 -146 95 -207 157 -58 57 -99 110 -150
196 -18 31 -21 32 -36 18 -46 -47 -136 14 -196 131 -31 62 -25 140 13 165 23
16 66 7 97 -19 l32 -28 -6 70 c-5 65 3 175 19 260 l6 36 -26 -24 c-49 -46
-116 -43 -132 5 -12 39 -6 77 22 136 34 73 93 122 147 122 33 0 40 -4 51 -31z"/>
</g>
</svg>
